<svg id="svg" xmlns="http://www.w3.org/2000/svg" xmlns:xlink="http://www.w3.org/1999/xlink" width="400" height="352.21238938053096" viewBox="0, 0, 400,352.21238938053096"><g id="svgg"><path id="path0" d="M0.000 176.106 L 0.000 352.212 200.000 352.212 L 400.000 352.212 400.000 176.106 L 400.000 0.000 200.000 0.000 L 0.000 0.000 0.000 176.106 M223.009 28.333 C 275.218 31.277,323.026 41.252,367.869 58.557 C 381.468 63.806,386.098 71.040,380.453 78.217 C 375.511 84.500,372.838 84.464,355.017 77.878 C 256.704 41.542,144.112 41.389,46.903 77.459 C 27.130 84.795,23.400 84.669,19.458 76.526 C 15.488 68.325,18.747 64.095,33.475 58.333 C 71.824 43.330,120.507 32.455,163.717 29.240 C 189.367 27.332,201.867 27.140,223.009 28.333 M167.547 83.508 C 173.650 86.058,171.782 77.023,192.554 204.425 C 196.244 227.058,199.438 246.130,199.652 246.808 C 200.579 249.744,199.842 253.951,219.422 134.071 C 227.094 87.097,226.626 89.425,228.955 86.657 C 236.245 77.992,293.717 88.138,345.357 107.205 C 367.472 115.371,367.755 117.477,350.373 144.437 C 337.066 165.078,335.774 166.177,327.908 163.557 C 317.710 160.161,318.011 153.489,329.146 136.153 C 332.888 130.328,334.119 127.727,333.365 127.239 C 326.243 122.624,268.409 108.384,250.916 106.939 C 246.277 106.555,249.613 88.879,219.430 273.791 C 210.224 330.195,209.962 330.973,200.237 330.973 C 190.559 330.973,190.544 330.933,182.843 284.071 C 179.684 264.845,171.863 217.257,165.463 178.319 C 159.063 139.381,153.520 107.200,153.145 106.807 C 151.826 105.423,113.648 112.565,96.903 117.327 C 82.400 121.452,69.246 125.750,67.848 126.821 C 66.647 127.741,67.310 129.226,73.019 138.414 C 83.256 154.889,82.175 162.479,69.443 163.535 C 62.623 164.100,61.095 162.296,42.320 131.496 C 34.611 118.849,36.487 114.136,51.493 108.459 C 80.855 97.351,112.603 89.171,142.478 85.018 C 149.535 84.036,156.305 83.078,157.522 82.888 C 162.096 82.173,164.744 82.336,167.547 83.508 " stroke="none" fill="#000000" fill-rule="evenodd"></path></g></svg>