<svg id="svg" version="1.1" xmlns="http://www.w3.org/2000/svg" xmlns:xlink="http://www.w3.org/1999/xlink" width="400" height="328.01932367149755" viewBox="0, 0, 400,328.01932367149755"><g id="svgg"><path id="path0" d="M172.705 13.317 C 135.890 15.435,103.788 20.757,69.203 30.477 C 68.339 30.719,66.818 31.148,65.821 31.428 C 64.825 31.709,63.357 32.121,62.560 32.344 C 59.092 33.315,41.637 39.022,40.338 39.610 C 39.807 39.851,38.394 40.364,37.198 40.751 C 34.903 41.494,31.488 42.747,29.469 43.588 C 27.810 44.278,26.032 44.987,24.879 45.417 C 19.309 47.497,17.042 49.260,15.460 52.747 C 11.291 61.933,21.140 71.636,30.454 67.519 C 31.373 67.112,32.886 66.515,33.816 66.191 C 36.766 65.165,39.664 63.998,41.177 63.229 C 41.638 62.994,42.348 62.802,42.754 62.802 C 43.159 62.802,43.923 62.585,44.451 62.319 C 44.979 62.053,45.842 61.618,46.370 61.353 C 46.898 61.087,47.662 60.870,48.068 60.870 C 48.473 60.870,49.183 60.657,49.644 60.397 C 52.079 59.027,76.481 51.795,88.889 48.766 C 89.819 48.539,91.558 48.114,92.754 47.822 C 95.664 47.110,98.247 46.531,101.449 45.872 C 102.911 45.572,105.030 45.127,106.159 44.885 C 110.725 43.905,112.937 43.458,115.700 42.956 C 117.295 42.666,119.686 42.231,121.014 41.988 C 126.764 40.939,138.941 39.209,148.068 38.145 C 183.016 34.071,228.324 34.831,262.077 40.059 C 263.671 40.306,266.498 40.742,268.357 41.028 C 270.217 41.314,272.826 41.744,274.155 41.984 C 275.483 42.224,277.440 42.562,278.502 42.736 C 279.565 42.910,281.304 43.239,282.367 43.467 C 283.430 43.696,285.604 44.136,287.198 44.444 C 290.647 45.113,293.816 45.798,296.135 46.377 C 297.065 46.609,298.913 47.044,300.242 47.343 C 301.570 47.642,303.527 48.109,304.589 48.380 C 305.652 48.650,307.283 49.057,308.213 49.282 C 319.411 52.000,341.463 58.537,345.652 60.380 C 346.184 60.614,347.488 61.082,348.551 61.419 C 349.614 61.757,350.690 62.206,350.942 62.417 C 351.194 62.629,351.795 62.802,352.277 62.802 C 352.759 62.802,353.531 62.994,353.992 63.229 C 354.769 63.624,355.779 64.052,358.575 65.169 C 359.173 65.408,360.423 65.864,361.353 66.184 C 363.115 66.789,364.062 67.145,366.327 68.056 C 371.271 70.044,378.511 66.292,380.125 60.907 C 382.250 53.813,379.100 48.666,370.690 45.492 C 368.344 44.607,365.990 43.704,365.459 43.486 C 364.928 43.268,363.297 42.655,361.836 42.123 C 360.374 41.592,358.218 40.797,357.044 40.356 C 353.879 39.170,339.915 34.567,335.749 33.337 C 333.756 32.748,331.582 32.082,330.918 31.855 C 325.923 30.154,309.516 25.976,297.101 23.244 C 258.148 14.673,212.489 11.029,172.705 13.317 M156.910 67.889 C 156.769 68.030,154.504 68.356,151.878 68.613 C 146.890 69.101,141.231 69.817,136.715 70.530 C 124.170 72.511,118.693 73.517,110.386 75.362 C 109.191 75.628,107.234 76.063,106.039 76.329 C 104.843 76.594,102.941 77.017,101.812 77.269 C 100.682 77.520,99.106 77.863,98.309 78.030 C 97.512 78.197,96.425 78.518,95.894 78.744 C 95.362 78.970,94.275 79.289,93.478 79.454 C 92.681 79.619,91.268 79.951,90.338 80.193 C 89.408 80.435,87.995 80.768,87.198 80.933 C 86.401 81.097,85.314 81.408,84.783 81.624 C 84.251 81.839,82.838 82.282,81.643 82.609 C 80.447 82.935,79.034 83.370,78.502 83.575 C 77.971 83.780,76.558 84.222,75.362 84.557 C 71.464 85.649,61.615 88.905,60.755 89.386 C 60.294 89.644,59.492 89.855,58.972 89.855 C 58.453 89.855,57.894 90.072,57.729 90.338 C 57.565 90.604,57.006 90.821,56.487 90.821 C 55.967 90.821,55.165 91.013,54.704 91.248 C 53.557 91.831,51.968 92.470,48.551 93.720 C 46.957 94.303,45.217 94.959,44.686 95.179 C 44.155 95.398,42.676 95.954,41.400 96.415 C 34.157 99.029,32.383 106.935,37.288 114.734 C 38.290 116.329,39.333 117.895,39.604 118.216 C 39.875 118.537,40.097 118.925,40.097 119.078 C 40.097 119.231,41.618 121.624,43.478 124.396 C 45.338 127.168,46.860 129.541,46.860 129.669 C 46.860 130.045,55.334 143.033,57.158 145.453 C 62.748 152.869,74.702 150.058,76.765 140.842 C 77.666 136.815,76.978 134.898,71.870 127.190 C 70.071 124.475,68.599 122.130,68.599 121.978 C 68.599 121.826,67.274 119.731,65.654 117.322 C 62.142 112.099,61.625 112.768,71.739 109.452 C 85.238 105.025,95.945 101.928,104.348 100.019 C 123.219 95.730,138.546 92.870,147.385 91.988 L 150.568 91.670 151.129 94.627 C 151.438 96.254,151.908 98.889,152.174 100.483 C 152.440 102.077,152.866 104.632,153.122 106.159 C 153.378 107.687,153.829 110.459,154.124 112.319 C 155.000 117.826,155.526 121.080,156.039 124.155 C 156.304 125.749,156.739 128.357,157.005 129.952 C 157.271 131.546,157.705 134.155,157.971 135.749 C 158.237 137.343,158.663 139.897,158.919 141.425 C 159.175 142.953,159.626 145.725,159.922 147.585 C 160.797 153.092,161.323 156.345,161.836 159.420 C 162.101 161.014,162.536 163.623,162.802 165.217 C 163.068 166.812,163.502 169.420,163.768 171.014 C 164.034 172.609,164.460 175.163,164.716 176.691 C 164.972 178.219,165.423 180.990,165.719 182.850 C 166.594 188.358,167.120 191.611,167.633 194.686 C 167.899 196.280,168.333 198.889,168.599 200.483 C 168.865 202.077,169.300 204.686,169.565 206.280 C 169.831 207.874,170.262 210.429,170.524 211.957 C 170.786 213.484,171.659 218.865,172.464 223.913 C 173.269 228.961,174.142 234.287,174.403 235.749 C 174.665 237.210,176.292 247.101,178.019 257.729 C 187.474 315.900,186.685 312.274,190.477 315.021 C 198.829 321.071,207.783 316.191,209.616 304.589 C 210.439 299.382,214.755 272.776,217.180 257.971 C 218.376 250.664,220.220 239.360,221.277 232.850 C 222.335 226.341,223.415 219.764,223.677 218.237 C 223.940 216.709,224.372 214.155,224.638 212.560 C 224.903 210.966,225.330 208.412,225.586 206.884 C 225.841 205.356,226.293 202.585,226.588 200.725 C 227.464 195.217,227.990 191.964,228.502 188.889 C 228.768 187.295,229.203 184.686,229.469 183.092 C 229.734 181.498,230.169 178.889,230.435 177.295 C 230.700 175.700,231.127 173.146,231.383 171.618 C 231.638 170.091,232.088 167.319,232.382 165.459 C 232.676 163.599,233.104 160.990,233.333 159.662 C 233.563 158.333,233.991 155.725,234.285 153.865 C 234.579 152.005,235.028 149.233,235.284 147.705 C 235.540 146.178,235.966 143.623,236.232 142.029 C 236.498 140.435,236.932 137.826,237.198 136.232 C 237.464 134.638,237.890 132.083,238.146 130.556 C 238.402 129.028,238.853 126.256,239.149 124.396 C 240.024 118.889,240.550 115.635,241.063 112.560 C 241.329 110.966,241.763 108.357,242.029 106.763 C 242.295 105.169,242.729 102.560,242.995 100.966 C 243.940 95.299,244.586 92.240,244.876 92.071 C 246.260 91.265,279.340 97.205,292.029 100.538 C 293.092 100.817,294.722 101.241,295.652 101.479 C 297.553 101.966,303.588 103.603,306.522 104.427 C 309.323 105.214,314.577 106.831,315.700 107.252 C 316.232 107.451,319.601 108.549,323.188 109.691 C 326.775 110.834,329.917 111.947,330.169 112.165 C 330.421 112.382,331.019 112.560,331.498 112.560 C 333.017 112.560,333.542 111.613,322.842 128.183 C 318.262 135.275,317.395 137.849,318.382 141.425 C 319.887 146.879,323.972 149.973,329.669 149.973 C 334.783 149.972,336.363 148.704,341.767 140.261 C 344.121 136.583,348.077 130.470,350.560 126.676 C 353.042 122.882,355.072 119.665,355.072 119.529 C 355.072 119.392,356.111 117.714,357.380 115.799 C 359.983 111.872,360.870 109.665,360.870 107.114 C 360.870 105.446,360.649 104.697,359.101 101.114 C 358.277 99.206,355.694 97.026,353.275 96.197 C 352.271 95.852,350.528 95.154,349.401 94.645 C 348.275 94.136,347.163 93.720,346.930 93.720 C 346.562 93.720,343.424 92.560,340.338 91.284 C 339.807 91.064,337.959 90.425,336.232 89.864 C 334.505 89.303,332.714 88.636,332.253 88.383 C 331.792 88.130,330.989 87.923,330.470 87.923 C 329.951 87.923,329.391 87.705,329.227 87.440 C 329.063 87.174,328.504 86.957,327.984 86.957 C 327.465 86.957,326.663 86.761,326.201 86.523 C 325.740 86.285,323.732 85.610,321.739 85.024 C 319.746 84.438,317.738 83.764,317.277 83.525 C 316.816 83.287,315.998 83.092,315.459 83.092 C 314.920 83.092,314.102 82.896,313.641 82.656 C 313.179 82.416,311.878 81.981,310.749 81.690 C 309.620 81.398,307.772 80.919,306.643 80.626 C 305.513 80.333,304.090 79.898,303.480 79.660 C 302.869 79.422,301.850 79.227,301.214 79.227 C 300.577 79.227,299.937 79.033,299.790 78.795 C 299.643 78.557,298.706 78.244,297.708 78.098 C 294.271 77.595,292.509 77.228,291.546 76.812 C 291.014 76.582,289.928 76.281,289.130 76.142 C 288.333 76.002,286.594 75.653,285.266 75.364 C 283.937 75.076,281.655 74.614,280.193 74.338 C 276.391 73.620,273.068 72.986,270.290 72.449 C 268.961 72.192,266.353 71.748,264.493 71.462 C 262.633 71.176,259.915 70.755,258.454 70.526 C 256.993 70.298,254.058 69.878,251.932 69.593 C 248.419 69.122,246.314 68.877,236.811 67.830 C 231.896 67.288,227.881 69.054,225.357 72.869 C 224.155 74.685,223.964 75.617,220.994 94.203 C 220.335 98.321,219.590 102.886,219.337 104.348 C 219.085 105.809,218.644 108.527,218.357 110.386 C 218.071 112.246,217.628 115.018,217.372 116.546 C 217.117 118.074,216.691 120.628,216.425 122.222 C 216.159 123.816,215.732 126.371,215.476 127.899 C 215.219 129.426,214.894 131.437,214.753 132.367 C 214.513 133.947,214.012 136.991,213.043 142.754 C 212.205 147.738,211.498 152.016,211.085 154.589 C 210.851 156.051,210.433 158.659,210.157 160.386 C 209.881 162.114,209.456 164.722,209.214 166.184 C 208.971 167.645,208.521 170.362,208.213 172.222 C 207.905 174.082,207.470 176.691,207.246 178.019 C 206.349 183.357,205.692 187.336,205.272 189.976 C 205.030 191.504,204.614 194.058,204.348 195.652 C 204.082 197.246,203.647 199.855,203.382 201.449 C 203.116 203.043,202.700 205.598,202.457 207.126 C 202.037 209.765,201.380 213.745,200.483 219.082 C 200.260 220.411,199.821 223.019,199.509 224.879 C 199.196 226.739,198.798 229.457,198.625 230.918 C 198.399 232.817,198.103 233.575,197.585 233.575 C 197.066 233.575,196.770 232.817,196.544 230.918 C 196.371 229.457,195.973 226.739,195.661 224.879 C 195.348 223.019,194.909 220.411,194.686 219.082 C 193.789 213.745,193.132 209.765,192.712 207.126 C 192.278 204.396,191.763 201.279,190.837 195.773 C 190.580 194.245,190.144 191.582,189.867 189.855 C 189.591 188.128,189.166 185.519,188.924 184.058 C 188.681 182.597,188.231 179.879,187.923 178.019 C 187.615 176.159,187.180 173.551,186.957 172.222 C 186.549 169.796,185.808 165.332,184.992 160.386 C 184.751 158.925,184.331 156.316,184.058 154.589 C 183.785 152.862,183.365 150.254,183.124 148.792 C 182.308 143.847,181.567 139.382,181.159 136.957 C 180.936 135.628,180.535 133.128,180.269 131.401 C 180.003 129.674,179.649 127.500,179.484 126.570 C 179.318 125.640,178.975 123.629,178.722 122.101 C 178.468 120.574,178.052 118.074,177.797 116.546 C 177.541 115.018,177.098 112.246,176.812 110.386 C 176.525 108.527,176.083 105.809,175.829 104.348 C 175.343 101.557,172.182 81.823,171.689 78.502 C 170.704 71.873,166.140 67.633,159.989 67.633 C 158.436 67.633,157.051 67.748,156.910 67.889 " stroke="none" fill="#000000" fill-rule="evenodd"></path></g></svg>